<svg xmlns="http://www.w3.org/2000/svg" width="14" height="14" viewBox="0 0 14 14">
  <path fill="#9B9B9B" d="M824.1875,1514.4375 L819.8125,1514.4375 C819.571,1514.4375 819.375,1514.6335 819.375,1514.875 C819.375,1515.1165 819.571,1515.3125 819.8125,1515.3125 L824.1875,1515.3125 C824.429,1515.3125 824.625,1515.1165 824.625,1514.875 C824.625,1514.6335 824.429,1514.4375 824.1875,1514.4375 Z M825.0625,1511.8125 L818.9375,1511.8125 C818.696,1511.8125 818.5,1512.0085 818.5,1512.25 C818.5,1512.4915 818.696,1512.6875 818.9375,1512.6875 L825.0625,1512.6875 C825.304,1512.6875 825.5,1512.4915 825.5,1512.25 C825.5,1512.0085 825.304,1511.8125 825.0625,1511.8125 Z M822,1507 C818.134261,1507 815,1509.74224 815,1513.125 C815,1515.05833 816.025935,1516.77943 817.625,1517.90207 L817.625,1521 L820.691435,1519.1393 C821.115827,1519.20933 821.552435,1519.25 822,1519.25 C825.866196,1519.25 829,1516.50776 829,1513.125 C829,1509.74224 825.866196,1507 822,1507 Z M822,1518.375 C821.489,1518.375 820.9955,1518.3155 820.521239,1518.21443 L818.461477,1519.45254 L818.489042,1517.42343 C816.910131,1516.47363 815.875,1514.90389 815.875,1513.125 C815.875,1510.2257 818.617239,1507.875 822,1507.875 C825.382761,1507.875 828.125,1510.2257 828.125,1513.125 C828.125,1516.0243 825.382761,1518.375 822,1518.375 Z" transform="translate(-815 -1507)"/>
</svg>
