<svg xmlns="http://www.w3.org/2000/svg" width="14" height="13" viewBox="0 0 14 13">
  <g fill="#FFF">
    <path d="M13.4533215,2.45727545 C13.0886904,2.08612948 12.6488703,1.90050449 12.1335546,1.90050449 L10.5002107,1.90050449 L10.1284029,0.890968737 C10.0360001,0.648504385 9.86715676,0.439374007 9.62154093,0.263603603 C9.37602726,0.0879112035 9.12448621,0 8.86681562,0 L5.13338865,0 C4.8757436,0 4.62415147,0.0879112035 4.37863781,0.263603603 C4.13312414,0.439374007 3.96425528,0.648504385 3.87187798,0.890968737 L3.50001914,1.90050449 L1.86667517,1.90050449 C1.35130845,1.90050449 0.911462787,2.08612948 0.5468317,2.45727545 C0.182277233,2.82844742 0,3.27629793 0,3.80093098 L0,10.4524627 C0,10.9771217 0.182277233,11.4250243 0.5468317,11.7960922 C0.911462787,12.1673162 1.35133399,12.3529412 1.86667517,12.3529412 L12.1333759,12.3529412 C12.6486915,12.3529412 13.0884861,12.1673162 13.4531427,11.7960922 C13.8176716,11.4250243 14,10.9771217 14,10.4524627 L14,3.80093098 C14.0001021,3.27629793 13.8177738,2.82844742 13.4533215,2.45727545 Z M9.30786166,9.47633891 C8.66862712,10.1271574 7.89942077,10.4526447 7.00003829,10.4526447 C6.10065581,10.4526447 5.33150054,10.1271574 4.69221492,9.47633891 C4.05292931,8.82562439 3.73335035,8.04232803 3.73335035,7.12689184 C3.73335035,6.21116964 4.05303147,5.42813329 4.69221492,4.77728877 C5.33142392,4.12644425 6.10068135,3.80108699 7.00003829,3.80108699 C7.89939523,3.80108699 8.66862712,4.12652225 9.30786166,4.77728877 C9.94712173,5.42805529 10.2667518,6.21116964 10.2667518,7.12689184 C10.2667518,8.04232803 9.94714727,8.82554639 9.30786166,9.47633891 Z"/>
    <path d="M7,4.94117647 C6.43286457,4.94117647 5.9479539,5.14253563 5.54524293,5.54530402 C5.14253196,5.94802234 4.94117647,6.43286675 4.94117647,7.00013771 C4.94117647,7.56718333 5.14253196,8.05210285 5.54524293,8.45482117 C5.9479539,8.85746437 6.43283954,9.05882353 7,9.05882353 C7.56706031,9.05882353 8.05202107,8.85746437 8.45473204,8.45482117 C8.85744301,8.05210285 9.05882353,7.56720837 9.05882353,7.00013771 C9.05882353,6.43289179 8.85744301,5.94804738 8.45473204,5.54530402 C8.0520461,5.14256067 7.56706031,4.94117647 7,4.94117647 Z"/>
  </g>
</svg>
