<svg xmlns="http://www.w3.org/2000/svg" width="19" height="16" viewBox="0 0 19 16">
  <path fill="#FFF" d="M14.1192661,5.86387435 L10.2844037,0.335078534 C10.1100576,0.167539267 9.84862385,0 9.58715596,0 C9.32568807,0 9.06422018,0.0837696335 8.88990826,0.335078534 L5.05504587,5.86387435 L0.871559633,5.86387435 C0.348623853,5.86387435 0,6.19895288 0,6.70157068 C0,6.78534031 0,6.86910995 0,6.95287958 L2.17889908,14.7434555 C2.35321101,15.4136126 3.05045872,16 3.83486239,16 L15.1651376,16 C15.9495413,16 16.646789,15.4973822 16.8211009,14.7434555 L19,6.95287958 C19,6.86910995 19,6.78534031 19,6.70157068 C19,6.19895288 18.6513761,5.86387435 18.1284404,5.86387435 L14.1192661,5.86387435 Z M6.97247706,5.86387435 L9.58715596,2.17801047 L12.2018349,5.86387435 L6.97247706,5.86387435 Z M9.58715596,12.565445 C8.62844037,12.565445 7.8440367,11.8115183 7.8440367,10.8900524 C7.8440367,9.96858639 8.62844037,9.21465969 9.58715596,9.21465969 C10.5458716,9.21465969 11.3302752,9.96858639 11.3302752,10.8900524 C11.3302752,11.8115183 10.5458716,12.565445 9.58715596,12.565445 Z"/>
</svg>
