<svg xmlns="http://www.w3.org/2000/svg" width="17" height="15" viewBox="0 0 17 15">
  <path fill="#EE041C" d="M16.7736516,12.5230211 L9.94578435,0.82568243 C9.64403261,0.30871679 9.10354667,0 8.49997409,0 C7.89640151,0 7.35591556,0.308648444 7.05416382,0.82568243 L0.226365629,12.5230211 C-0.0754552096,13.0399867 -0.0754552096,13.6572836 0.226365629,14.1743176 C0.528186467,14.6913516 1.06860331,15 1.67217589,15 L15.3279796,15 C15.9314831,15 16.471969,14.6913516 16.7737207,14.1743859 C17.0754725,13.6573519 17.0754034,13.040055 16.7736516,12.5230211 Z M8.50004318,13.0969869 C7.90082379,13.0969869 7.41333615,12.6148091 7.41333615,12.0221166 C7.41333615,11.4294925 7.90082379,10.9473147 8.50004318,10.9473147 C9.09926258,10.9473147 9.58675022,11.4294925 9.58675022,12.0221166 C9.58668112,12.6148775 9.09919348,13.0969869 8.50004318,13.0969869 Z M9.59407463,8.50238982 C9.59407463,9.09904635 9.10327027,9.5845047 8.50004318,9.5845047 C7.8968161,9.5845047 7.40601174,9.09904635 7.40601174,8.50238982 L7.40601174,3.53592469 C7.40601174,3.25283748 7.63804342,3.02333317 7.92424807,3.02333317 L9.07590739,3.02333317 C9.36218114,3.02333317 9.59414372,3.25283748 9.59414372,3.53592469 L9.59414372,8.50238982 L9.59407463,8.50238982 Z"/>
</svg>
