<svg xmlns="http://www.w3.org/2000/svg" width="19" height="16" viewBox="0 0 19 16">
  <path fill="#7AC043" d="M14.1192661,5.86387435 L10.2844037,0.335078534 C10.1100576,0.167539267 9.84862385,0 9.58715596,0 C9.32568807,0 9.06422018,0.0837696335 8.88990826,0.335078534 L5.05504587,5.86387435 L0.871559633,5.86387435 C0.348623853,5.86387435 0,6.19895288 0,6.70157068 C0,6.78534031 0,6.86910995 0,6.95287958 L2.17889908,14.7434555 C2.35321101,15.4136126 3.05045872,16 3.83486239,16 L15.1651376,16 C15.9495413,16 16.646789,15.4973822 16.8211009,14.7434555 L19,6.95287958 C19,6.86910995 19,6.78534031 19,6.70157068 C19,6.19895288 18.6513761,5.86387435 18.1284404,5.86387435 L14.1192661,5.86387435 Z M7,6 L9.5,2 L12,6 L7,6 Z M9.5,12 C8.675,12 8,11.325 8,10.5 C8,9.675 8.675,9 9.5,9 C10.325,9 11,9.675 11,10.5 C11,11.325 10.325,12 9.5,12 Z"/>
</svg>
