<svg xmlns="http://www.w3.org/2000/svg" width="17" height="17" viewBox="0 0 17 17">
  <path fill="#828282" d="M1385.74153,101.484306 L1381.55074,97.2762349 C1382.62826,96.0395675 1383.21864,94.4835867 1383.21864,92.8637433 C1383.21864,89.0791349 1380.02934,86 1376.10932,86 C1372.1893,86 1369,89.0791349 1369,92.8637433 C1369,96.6483516 1372.1893,99.7274866 1376.10932,99.7274866 C1377.58095,99.7274866 1378.98334,99.2989503 1380.18235,98.4854475 L1384.40497,102.72545 C1384.58147,102.902415 1384.81886,103 1385.07325,103 C1385.31404,103 1385.54247,102.911368 1385.71587,102.750219 C1386.08432,102.407928 1386.09606,101.840326 1385.74153,101.484306 Z M1376.10932,87.7905417 C1379.00683,87.7905417 1381.36404,90.0663203 1381.36404,92.8637433 C1381.36404,95.6611663 1379.00683,97.9369448 1376.10932,97.9369448 C1373.21181,97.9369448 1370.85461,95.6611663 1370.85461,92.8637433 C1370.85461,90.0663203 1373.21181,87.7905417 1376.10932,87.7905417 Z" transform="translate(-1369 -86)"/>
</svg>
