<svg xmlns="http://www.w3.org/2000/svg" width="28" height="19"><defs><clipPath id="a"><path clip-rule="evenodd" d="M-324-20H51v1881h-375z"/></clipPath></defs><g clip-path="url(#a)"><path fill="#FFF" d="M26.869 9H1.131C.506 9 0 9.448 0 10s.506 1 1.131 1H26.87c.625 0 1.131-.448 1.131-1s-.506-1-1.131-1z"/></g><defs><clipPath id="b"><path clip-rule="evenodd" d="M-324-20H51v1881h-375z"/></clipPath></defs><g clip-path="url(#b)"><path fill="#FFF" d="M26.869 0H1.131C.506 0 0 .448 0 1s.506 1 1.131 1H26.87C27.494 2 28 1.552 28 1s-.506-1-1.131-1z"/></g><defs><clipPath id="c"><path clip-rule="evenodd" d="M-324-20H51v1881h-375z"/></clipPath></defs><g clip-path="url(#c)"><path fill="#FFF" d="M26.869 17H1.131C.506 17 0 17.448 0 18s.506 1 1.131 1H26.87c.625 0 1.131-.448 1.131-1s-.506-1-1.131-1z"/></g></svg>