<svg xmlns="http://www.w3.org/2000/svg" xmlns:xlink="http://www.w3.org/1999/xlink" width="54" height="54" viewBox="0 0 54 54"><defs><rect id="a" width="46" height="46" rx="23"/></defs><g fill="none" fill-rule="evenodd" transform="translate(4 4)"><use fill="#EE7079" xlink:href="#a"/><rect width="50" height="50" x="-2" y="-2" stroke="#F6F9FC" stroke-width="4" rx="25"/><path fill="#FFF" fill-rule="nonzero" d="M31.392 18.545L25.938 24l5.454 5.454a2.077 2.077 0 0 1-2.937 2.938L23 26.937l-5.455 5.455a2.07 2.07 0 0 1-1.468.608 2.077 2.077 0 0 1-1.468-3.546L20.062 24l-5.454-5.455a2.077 2.077 0 0 1 2.937-2.937L23 21.062l5.454-5.454a2.077 2.077 0 0 1 2.938 2.937z"/></g></svg>