<svg xmlns="http://www.w3.org/2000/svg" xmlns:xlink="http://www.w3.org/1999/xlink" width="54" height="54" viewBox="0 0 54 54"><defs><rect id="a" width="46" height="46" rx="23"/></defs><g fill="none" fill-rule="evenodd" transform="translate(4 4)"><use fill="#4EB96E" xlink:href="#a"/><rect width="50" height="50" x="-2" y="-2" stroke="#F6F9FC" stroke-width="4" rx="25"/><path fill="#FFF" fill-rule="nonzero" d="M32.286 16.913l-.509-.428a2.081 2.081 0 0 0-2.859.178l-8.51 9.239-2.57-2.166a2.082 2.082 0 0 0-2.859.175l-.45.487a1.982 1.982 0 0 0-.526 1.448c.027.532.27 1.031.674 1.388l4.709 4.222c.408.375.954.57 1.513.541a2.067 2.067 0 0 0 1.445-.695l10.16-11.557a1.98 1.98 0 0 0-.218-2.832z"/></g></svg>