<svg xmlns="http://www.w3.org/2000/svg" width="71" height="73"><defs><clipPath id="a"><path clip-rule="evenodd" d="M-390-156h1440v2006H-390z"/></clipPath><linearGradient id="b" gradientUnits="userSpaceOnUse" x1="65.363" y1="59.898" x2="0"><stop offset="0" stop-color="#4A9CD5"/><stop offset="1" stop-color="#5066A0"/></linearGradient></defs><g clip-path="url(#a)"><path fill="url(#b)" d="M55.097 38.705V5.879H5.903v61.242h22.63a2.954 2.954 0 0 1 2.95 2.94A2.954 2.954 0 0 1 28.534 73H2.951A2.954 2.954 0 0 1 0 70.06V2.94A2.954 2.954 0 0 1 2.952 0h55.096A2.954 2.954 0 0 1 61 2.94v35.765a2.954 2.954 0 0 1-2.952 2.94 2.954 2.954 0 0 1-2.951-2.94zM17.909 17h26.182C45.69 17 47 18.35 47 20s-1.309 3-2.91 3H17.91C16.308 23 15 21.65 15 20s1.309-3 2.91-3zM47 36c0-1.65-1.309-3-2.909-3H17.909C16.309 33 15 34.35 15 36s1.309 3 2.909 3h26.182C45.69 39 47 37.65 47 36zm23.026 9.742c-1.213-1.072-3.057-.975-4.124.244L49.938 63.832l-8.006-7.753a2.905 2.905 0 0 0-4.124.098 2.94 2.94 0 0 0 .097 4.145l10.19 9.849a2.853 2.853 0 0 0 2.037.829h.097c.776-.049 1.553-.39 2.038-.975l17.953-20.09c1.116-1.267 1.02-3.12-.194-4.193zM15 52c0-1.65 1.35-3 3-3h8c1.65 0 3 1.35 3 3s-1.35 3-3 3h-8c-1.65 0-3-1.35-3-3z" fill-rule="evenodd"/></g></svg>