<svg xmlns="http://www.w3.org/2000/svg" width="46" height="46"><defs><clipPath id="a"><path clip-rule="evenodd" d="M-699-1471H741V535H-699z"/></clipPath></defs><g clip-path="url(#a)"><path fill="#4EB96E" d="M23 0q.59 0 1.174.027.585.027 1.166.08.58.054 1.153.134.574.08 1.14.187t1.124.24q.557.133 1.105.292.548.158 1.085.343.537.185 1.061.395.525.21 1.037.444.512.235 1.01.494.497.26.98.543.482.283.948.589.467.306.916.635.45.33.88.68.432.351.844.723.413.373.806.765.392.393.765.806.372.412.723.843.35.432.68.881.329.45.635.916t.59.949q.282.482.542.98.259.497.494 1.01.234.51.444 1.036.21.524.395 1.061.184.537.343 1.085.16.548.292 1.105.133.558.24 1.124.107.566.187 1.14.08.573.134 1.153.053.58.08 1.166Q46 22.41 46 23t-.027 1.174q-.027.585-.08 1.166-.054.58-.134 1.153-.08.574-.187 1.14t-.24 1.124q-.133.557-.291 1.105-.16.548-.344 1.085-.185.537-.395 1.061-.21.525-.444 1.037-.235.512-.494 1.01-.26.497-.543.98-.283.482-.589.948-.306.467-.635.916-.33.45-.68.88-.351.432-.723.844-.373.413-.765.806-.393.392-.806.765-.412.372-.843.723-.432.35-.881.68-.45.329-.916.635t-.949.59q-.482.282-.98.542-.497.259-1.01.494-.51.234-1.036.444-.525.21-1.061.395-.537.184-1.085.343-.548.16-1.105.292-.558.133-1.124.24-.566.107-1.14.187-.573.08-1.153.134-.58.053-1.166.08Q23.59 46 23 46t-1.174-.027q-.585-.027-1.166-.08-.58-.054-1.153-.134-.574-.08-1.14-.187t-1.124-.24q-.557-.133-1.105-.291-.548-.16-1.085-.344-.537-.185-1.061-.395-.525-.21-1.037-.444-.512-.235-1.01-.494-.497-.26-.98-.543-.482-.283-.948-.589-.467-.306-.916-.635-.45-.33-.88-.68-.432-.351-.844-.723-.413-.373-.806-.765-.392-.393-.765-.806-.372-.412-.723-.843-.35-.432-.68-.881-.329-.45-.635-.916t-.59-.949q-.282-.482-.542-.98-.259-.497-.494-1.01-.234-.51-.444-1.036-.21-.525-.395-1.061-.185-.537-.343-1.085-.16-.548-.292-1.105-.133-.558-.24-1.124-.107-.566-.187-1.14-.08-.573-.134-1.153-.053-.58-.08-1.166Q0 23.59 0 23t.027-1.174q.027-.585.08-1.166.054-.58.134-1.153.08-.574.187-1.14t.24-1.124q.133-.557.292-1.105.158-.548.343-1.085.185-.537.395-1.061.21-.525.444-1.037.235-.512.494-1.01.26-.497.543-.98.283-.482.589-.948.306-.467.635-.916.33-.45.68-.88.351-.432.723-.844.373-.413.765-.806.393-.392.806-.765.412-.372.843-.723.432-.35.881-.68.45-.329.916-.635t.949-.59q.482-.282.98-.542.497-.259 1.01-.494.51-.234 1.036-.444.524-.21 1.061-.395.537-.185 1.085-.343.548-.16 1.105-.292.558-.133 1.124-.24.566-.107 1.14-.187.573-.08 1.153-.134.58-.053 1.166-.08Q22.41 0 23 0z"/></g><defs><clipPath id="b"><path d="M46 23q0-.59-.027-1.174-.027-.585-.08-1.166-.054-.58-.134-1.153-.08-.574-.187-1.14t-.24-1.124q-.133-.557-.291-1.105-.16-.548-.344-1.085-.185-.537-.395-1.061-.21-.525-.444-1.037-.235-.512-.494-1.01-.26-.497-.543-.98-.283-.482-.589-.948-.306-.467-.635-.916-.33-.45-.68-.88-.351-.432-.723-.844-.373-.413-.765-.806-.393-.392-.806-.765-.412-.372-.843-.723-.432-.35-.881-.68-.45-.329-.916-.635t-.949-.59q-.482-.282-.98-.542-.497-.259-1.01-.494-.51-.234-1.036-.444-.525-.21-1.061-.395-.537-.185-1.085-.343-.548-.16-1.105-.292-.558-.133-1.124-.24-.566-.107-1.14-.187-.573-.08-1.153-.134-.58-.053-1.166-.08Q23.59 0 23 0t-1.174.027q-.585.027-1.166.08-.58.054-1.153.134-.574.08-1.14.187t-1.124.24Q16.686.8 16.138.96q-.548.158-1.085.343-.537.185-1.061.395-.525.21-1.037.444-.512.235-1.01.494-.497.26-.98.543-.482.283-.948.589-.467.306-.916.635-.45.33-.88.68-.432.351-.844.723-.413.373-.806.765-.392.393-.765.806-.372.412-.723.843-.35.432-.68.881-.329.45-.635.916t-.59.949q-.282.482-.542.98-.259.497-.494 1.01-.234.51-.444 1.036-.21.524-.395 1.061-.185.537-.343 1.085-.16.548-.292 1.105-.133.558-.24 1.124-.107.566-.187 1.14-.08.573-.134 1.153-.053.58-.08 1.166Q0 22.41 0 23t.027 1.174q.027.585.08 1.166.054.58.134 1.153.08.574.187 1.14t.24 1.124q.133.557.292 1.105.158.548.343 1.085.185.537.395 1.061.21.525.444 1.037.235.512.494 1.01.26.497.543.98.283.482.589.948.306.467.635.916.33.45.68.88.351.432.723.844.373.413.765.806.393.392.806.765.412.372.843.723.432.35.881.68.45.329.916.635t.949.59q.482.282.98.542.497.259 1.01.494.51.234 1.036.444.524.21 1.061.395.537.184 1.085.343.548.16 1.105.292.558.133 1.124.24.566.107 1.14.187.573.08 1.153.134.58.053 1.166.08Q22.41 46 23 46t1.174-.027q.585-.027 1.166-.08.58-.054 1.153-.134.574-.08 1.14-.187t1.124-.24q.557-.133 1.105-.291.548-.16 1.085-.344.537-.185 1.061-.395.525-.21 1.037-.444.512-.235 1.01-.494.497-.26.98-.543.482-.283.948-.589.467-.306.916-.635.45-.33.88-.68.432-.351.844-.723.413-.373.806-.765.392-.393.765-.806.372-.412.723-.843.35-.432.68-.881.329-.45.635-.916t.59-.949q.282-.482.542-.98.259-.497.494-1.01.234-.51.444-1.036.21-.525.395-1.061.184-.537.343-1.085.16-.548.292-1.105.133-.558.24-1.124.107-.566.187-1.14.08-.573.134-1.153.053-.58.08-1.166Q46 23.59 46 23z" clip-rule="evenodd"/></clipPath></defs><g clip-path="url(#b)"><path fill="none" stroke="#F6F9FC" stroke-width="8" d="M23 0q.59 0 1.174.027.585.027 1.166.08.58.054 1.153.134.574.08 1.14.187t1.124.24q.557.133 1.105.292.548.158 1.085.343.537.185 1.061.395.525.21 1.037.444.512.235 1.01.494.497.26.98.543.482.283.948.589.467.306.916.635.45.33.88.68.432.351.844.723.413.373.806.765.392.393.765.806.372.412.723.843.35.432.68.881.329.45.635.916t.59.949q.282.482.542.98.259.497.494 1.01.234.51.444 1.036.21.524.395 1.061.184.537.343 1.085.16.548.292 1.105.133.558.24 1.124.107.566.187 1.14.08.573.134 1.153.053.58.08 1.166Q46 22.41 46 23t-.027 1.174q-.027.585-.08 1.166-.054.58-.134 1.153-.08.574-.187 1.14t-.24 1.124q-.133.557-.291 1.105-.16.548-.344 1.085-.185.537-.395 1.061-.21.525-.444 1.037-.235.512-.494 1.01-.26.497-.543.98-.283.482-.589.948-.306.467-.635.916-.33.45-.68.88-.351.432-.723.844-.373.413-.765.806-.393.392-.806.765-.412.372-.843.723-.432.35-.881.68-.45.329-.916.635t-.949.59q-.482.282-.98.542-.497.259-1.01.494-.51.234-1.036.444-.525.21-1.061.395-.537.184-1.085.343-.548.16-1.105.292-.558.133-1.124.24-.566.107-1.14.187-.573.08-1.153.134-.58.053-1.166.08Q23.59 46 23 46t-1.174-.027q-.585-.027-1.166-.08-.58-.054-1.153-.134-.574-.08-1.14-.187t-1.124-.24q-.557-.133-1.105-.291-.548-.16-1.085-.344-.537-.185-1.061-.395-.525-.21-1.037-.444-.512-.235-1.01-.494-.497-.26-.98-.543-.482-.283-.948-.589-.467-.306-.916-.635-.45-.33-.88-.68-.432-.351-.844-.723-.413-.373-.806-.765-.392-.393-.765-.806-.372-.412-.723-.843-.35-.432-.68-.881-.329-.45-.635-.916t-.59-.949q-.282-.482-.542-.98-.259-.497-.494-1.01-.234-.51-.444-1.036-.21-.525-.395-1.061-.185-.537-.343-1.085-.16-.548-.292-1.105-.133-.558-.24-1.124-.107-.566-.187-1.14-.08-.573-.134-1.153-.053-.58-.08-1.166Q0 23.59 0 23t.027-1.174q.027-.585.08-1.166.054-.58.134-1.153.08-.574.187-1.14t.24-1.124q.133-.557.292-1.105.158-.548.343-1.085.185-.537.395-1.061.21-.525.444-1.037.235-.512.494-1.01.26-.497.543-.98.283-.482.589-.948.306-.467.635-.916.33-.45.68-.88.351-.432.723-.844.373-.413.765-.806.393-.392.806-.765.412-.372.843-.723.432-.35.881-.68.45-.329.916-.635t.949-.59q.482-.282.98-.542.497-.259 1.01-.494.51-.234 1.036-.444.524-.21 1.061-.395.537-.185 1.085-.343.548-.16 1.105-.292.558-.133 1.124-.24.566-.107 1.14-.187.573-.08 1.153-.134.58-.053 1.166-.08Q22.41 0 23 0z"/></g><defs><clipPath id="c"><path clip-rule="evenodd" d="M-699-1471H741V535H-699z"/></clipPath></defs><g clip-path="url(#c)"><path fill="#FFF" d="M32.286 16.913l-.509-.428a2.081 2.081 0 0 0-2.859.178l-8.51 9.239-2.57-2.166a2.082 2.082 0 0 0-2.859.175l-.45.487a1.982 1.982 0 0 0-.526 1.448c.027.532.27 1.031.674 1.388l4.709 4.222c.408.375.954.57 1.513.541a2.067 2.067 0 0 0 1.445-.695l10.16-11.557a1.98 1.98 0 0 0-.218-2.832z"/></g></svg>